<?xml version="1.0" encoding="UTF-8"?>
<!--Generator: Apple Native CoreSVG 232.5-->
<!DOCTYPE svg
PUBLIC "-//W3C//DTD SVG 1.1//EN"
       "http://www.w3.org/Graphics/SVG/1.1/DTD/svg11.dtd">
<svg version="1.1" xmlns="http://www.w3.org/2000/svg" xmlns:xlink="http://www.w3.org/1999/xlink" width="31.0811" height="30.7515">
 <g>
  <rect height="30.7515" opacity="0" width="31.0811" x="0" y="0"/>
  <path d="M15.3574 30.7271C23.8062 30.7271 30.7271 23.8062 30.7271 15.3697C30.7271 6.92091 23.8028 0 15.354 0C6.91749 0 0 6.92091 0 15.3697C0 23.8062 6.92091 30.7271 15.3574 30.7271Z" fill="#3f72af" fill-opacity="0.25"/>
  <path d="M20.7881 19.0279C20.4995 19.0279 20.3042 18.8325 20.3042 18.5127L20.3042 13.8453L20.3325 11.0045L18.7871 12.6227L10.3282 21.0762C10.2349 21.1783 10.1104 21.2388 9.92337 21.2388C9.6382 21.2388 9.4463 21.0435 9.4463 20.7515C9.4463 20.5938 9.51906 20.4746 9.61232 20.3726L18.0869 11.9014L19.6997 10.3438L17.5107 10.3668L12.167 10.3668C11.8594 10.3668 11.6572 10.1714 11.6572 9.88626C11.6572 9.60988 11.856 9.43556 12.169 9.43556L20.7681 9.43556C21.0508 9.43556 21.2564 9.61574 21.2564 9.93803L21.2564 18.5147C21.2564 18.8311 21.0611 19.0279 20.7881 19.0279Z" fill="#3f72af"/>
 </g>
</svg>
