<?xml version="1.0" encoding="UTF-8"?>
<!--Generator: Apple Native CoreSVG 232.5-->
<!DOCTYPE svg
PUBLIC "-//W3C//DTD SVG 1.1//EN"
       "http://www.w3.org/Graphics/SVG/1.1/DTD/svg11.dtd">
<svg version="1.1" xmlns="http://www.w3.org/2000/svg" xmlns:xlink="http://www.w3.org/1999/xlink" width="80.0491" height="79.9539">
 <g>
  <rect height="79.9539" opacity="0" width="80.0491" x="0" y="0"/>
  <path d="M39.9294 79.9539C61.8961 79.9539 79.8904 61.9596 79.8904 39.9928C79.8904 18.0578 61.8872 0.0634766 39.9205 0.0634766C17.9855 0.0634766 0 18.0578 0 39.9928C0 61.9596 17.9944 79.9539 39.9294 79.9539Z" fill="#ff453a"/>
  <path d="M12.3056 43.8408L12.3056 43.4193C12.3056 32.6816 26.4977 27.6593 39.9294 27.6593C53.361 27.6593 67.562 32.6816 67.562 43.4193L67.562 43.8408C67.562 45.6601 66.8828 48.9113 63.2621 48.9113C60.9592 48.9113 58.335 48.8161 53.752 47.4018C51.7068 46.7455 50.2176 45.8682 50.177 42.8074L50.1135 40.2188C50.1135 39.6196 49.7682 39.1562 48.9875 38.9112C47.591 38.4351 44.3359 37.8638 39.9294 37.8638C35.5317 37.8638 32.2995 38.4351 30.8712 38.9112C30.1222 39.1562 29.7452 39.6196 29.7452 40.2188L29.7046 42.8074C29.65 45.8682 28.1748 46.7455 26.1067 47.4018C21.5465 48.8161 18.9084 48.9113 16.5966 48.9113C12.9759 48.9113 12.3056 45.6601 12.3056 43.8408Z" fill="#ffffff"/>
 </g>
</svg>
