<?xml version="1.0" encoding="UTF-8"?>
<!--Generator: Apple Native CoreSVG 232.5-->
<!DOCTYPE svg
PUBLIC "-//W3C//DTD SVG 1.1//EN"
       "http://www.w3.org/Graphics/SVG/1.1/DTD/svg11.dtd">
<svg version="1.1" xmlns="http://www.w3.org/2000/svg" xmlns:xlink="http://www.w3.org/1999/xlink" width="49.5344" height="49.2024">
 <g>
  <rect height="49.2024" opacity="0" width="49.5344" x="0" y="0"/>
  <path d="M24.5719 49.1634C38.0899 49.1634 49.1634 38.0899 49.1634 24.5914C49.1634 11.0735 38.0844 0 24.5664 0C11.068 0 0 11.0735 0 24.5914C0 38.0899 11.0735 49.1634 24.5719 49.1634Z" fill="#98989d" fill-opacity="0.25"/>
  <path d="M18.5906 40.1633C18.1938 40.1633 17.8609 39.8414 17.8609 39.4445C17.8609 39.0422 18.1938 38.7094 18.5906 38.7094L23.8477 38.7094L23.8477 34.2563C18.857 33.9399 15.3805 30.2696 15.3805 25.4594L15.3805 22.8578C15.3805 22.4805 15.7078 22.1531 16.0992 22.1531C16.4821 22.1531 16.818 22.4805 16.818 22.8578L16.818 25.4594C16.818 29.9727 19.7165 32.8766 24.5719 32.8766C29.4274 32.8766 32.3735 29.9727 32.3735 25.4594L32.3735 22.8578C32.3735 22.4805 32.6953 22.1531 33.0782 22.1531C33.4696 22.1531 33.7969 22.4805 33.7969 22.8578L33.7969 25.4594C33.7969 30.2696 30.2977 33.9344 25.3016 34.2563L25.3016 38.7094L30.5641 38.7094C30.961 38.7094 31.2884 39.0422 31.2884 39.4445C31.2884 39.836 30.9555 40.1633 30.5641 40.1633ZM24.5719 29.4875C21.9993 29.4875 20.3453 27.4954 20.3453 24.8922L20.3453 13.6922C20.3453 11.0891 21.9993 9.09379 24.5719 9.09379C27.1446 9.09379 28.7985 11.0891 28.7985 13.6922L28.7985 24.8922C28.7985 27.4954 27.1446 29.4875 24.5719 29.4875Z" fill="#98989d"/>
 </g>
</svg>
