<?xml version="1.0" encoding="UTF-8"?>
<!--Generator: Apple Native CoreSVG 232.5-->
<!DOCTYPE svg
PUBLIC "-//W3C//DTD SVG 1.1//EN"
       "http://www.w3.org/Graphics/SVG/1.1/DTD/svg11.dtd">
<svg version="1.1" xmlns="http://www.w3.org/2000/svg" xmlns:xlink="http://www.w3.org/1999/xlink" width="17.7683" height="17.548">
 <g>
  <rect height="17.548" opacity="0" width="17.7683" x="0" y="0"/>
  <path d="M12.7802 17.3186C14.0661 17.3186 15.1911 16.9286 16.1453 15.9604C16.1775 15.9293 16.2044 15.9003 16.2208 15.8819C16.7921 15.3088 17.0558 14.6915 17.0558 14.132C17.0558 13.6319 16.7971 13.1652 16.2759 12.8118L13.563 10.9623C12.8997 10.5111 12.1058 10.3831 11.2421 11.2257L10.6181 11.8298C10.411 12.0316 10.13 12.0979 9.80393 11.9376C9.40695 11.729 8.34055 10.9365 7.3553 9.96182C6.23236 8.85148 5.78089 8.28898 5.38626 7.51261C5.22074 7.18654 5.2849 6.91291 5.49203 6.70578L6.09818 6.07648C6.93343 5.21604 6.81068 4.42414 6.36156 3.76085L4.50677 1.04268C4.15344 0.521482 3.69201 0.277435 3.18663 0.26806C2.62706 0.253412 2.00245 0.544329 1.442 1.09775C1.41095 1.12998 1.38721 1.14638 1.35821 1.17334C0.41836 2.10439 0 3.23467 0 4.48478C0 7.05587 1.79941 10.0802 4.5252 12.7987C7.22902 15.4919 10.2197 17.3186 12.7802 17.3186ZM12.7823 16.6831C10.3779 16.6881 7.48596 14.9183 4.9471 12.3835C2.40091 9.8341 0.635766 6.91026 0.635474 4.49532C0.639576 3.41427 1.00051 2.43751 1.80237 1.64357C1.83254 1.61545 1.85745 1.59464 1.88762 1.56447C2.33645 1.11858 2.77883 0.908813 3.14562 0.908813C3.4755 0.908813 3.75089 1.08078 3.98556 1.42648L5.81661 4.1341C6.11016 4.56388 6.18897 5.08507 5.63497 5.62119L4.95792 6.29093C4.5334 6.7049 4.50469 7.31692 4.7587 7.78362C5.06486 8.33499 5.85295 9.29916 6.92228 10.3896C8.0042 11.4926 8.98887 12.259 9.54025 12.5631C10.0017 12.8192 10.619 12.7905 11.0277 12.3659L11.6974 11.6836C12.2388 11.1349 12.76 11.2117 13.1898 11.4999L15.8974 13.3383C16.2378 13.573 16.4098 13.8484 16.4098 14.1782C16.4098 14.5503 16.2032 14.9821 15.7468 15.4488C15.7187 15.4737 15.7031 15.4913 15.675 15.5162C14.8758 16.3307 13.8844 16.679 12.7823 16.6831Z" fill="#3f72af"/>
  <path d="M10.2903 7.35968C10.3618 7.35968 10.4429 7.32218 10.4989 7.26095L15.3554 2.39711L16.8161 0.902379L16.776 3.8057L16.776 6.14033C16.776 6.29708 16.9017 6.41955 17.0584 6.42365C17.2193 6.42775 17.3499 6.29591 17.3499 6.14033L17.3499 0.283901C17.3499 0.103716 17.2483 0 17.0429 0L11.1097 0C10.9541 0 10.815 0.141217 10.8138 0.302063C10.8179 0.458808 10.953 0.595043 11.1097 0.595043L13.5442 0.595043L16.4464 0.531759L14.9528 1.99455L10.0963 6.84785C10.0152 6.929 9.98615 6.99961 9.98615 7.08575C9.98615 7.24454 10.1148 7.35968 10.2903 7.35968Z" fill="#3f72af"/>
 </g>
</svg>
