<?xml version="1.0" encoding="UTF-8"?>
<!--Generator: Apple Native CoreSVG 232.5-->
<!DOCTYPE svg
PUBLIC "-//W3C//DTD SVG 1.1//EN"
       "http://www.w3.org/Graphics/SVG/1.1/DTD/svg11.dtd">
<svg version="1.1" xmlns="http://www.w3.org/2000/svg" xmlns:xlink="http://www.w3.org/1999/xlink" width="49.5344" height="49.2024">
 <g>
  <rect height="49.2024" opacity="0" width="49.5344" x="0" y="0"/>
  <path d="M24.5719 49.2024C38.0899 49.2024 49.1634 38.129 49.1634 24.611C49.1634 11.1125 38.0844 0.0390625 24.5664 0.0390625C11.068 0.0390625 0 11.1125 0 24.611C0 38.129 11.0735 49.2024 24.5719 49.2024Z" fill="#3f72af" fill-opacity="0.25"/>
  <path d="M17.6149 30.8985C11.8774 25.161 7.81646 17.0727 12.5047 12.3875C12.6024 12.2899 12.7 12.1641 12.8563 12.0664C14.0977 11.3024 15.8508 10.0016 17.0571 11.7188L20.4258 16.5055C21.1743 17.5657 21.2852 18.6969 20.018 20.1266L18.9266 21.3328C18.6563 21.6282 18.636 21.9594 18.8399 22.3368C19.2579 23.1735 20.4376 24.8453 22.0485 26.4703C23.6735 28.0867 25.3625 29.2164 26.2047 29.7071C26.5844 29.936 27.0079 29.9133 27.3008 29.6203L28.4204 28.5289C29.7719 27.225 30.9196 27.3164 31.9938 28.0594C36.1719 30.9305 36.7594 31.2844 37.1141 31.6328C38.1407 32.6899 37.9547 34.15 36.3477 35.7899C36.2727 35.8617 36.254 35.9 36.1594 36.0141C31.4321 40.7164 23.3102 36.5993 17.6149 30.8985Z" fill="#3f72af"/>
 </g>
</svg>
