<?xml version="1.0" encoding="UTF-8"?>
<!--Generator: Apple Native CoreSVG 232.5-->
<!DOCTYPE svg
PUBLIC "-//W3C//DTD SVG 1.1//EN"
       "http://www.w3.org/Graphics/SVG/1.1/DTD/svg11.dtd">
<svg version="1.1" xmlns="http://www.w3.org/2000/svg" xmlns:xlink="http://www.w3.org/1999/xlink" width="61.796" height="61.503">
 <g>
  <rect height="61.503" opacity="0" width="61.796" x="0" y="0"/>
  <path d="M30.7149 61.4542C47.6124 61.4542 61.4542 47.6124 61.4542 30.7393C61.4542 13.8418 47.6055 0 30.7081 0C13.835 0 0 13.8418 0 30.7393C0 47.6124 13.8418 61.4542 30.7149 61.4542Z" fill="#3f72af" fill-opacity="0.25"/>
  <path d="M22.1983 42.5753C20.9414 42.5753 20.3457 41.8682 20.3457 40.8301L20.3457 20.5821C20.3457 19.5615 20.9414 18.8545 22.1983 18.8545L25.4141 18.8545C26.7061 18.8545 27.2842 19.5615 27.2842 20.5821L27.2842 40.8301C27.2842 41.8682 26.7061 42.5753 25.4141 42.5753ZM35.9942 42.5753C34.7374 42.5753 34.1524 41.8682 34.1524 40.8301L34.1524 20.5821C34.1524 19.5615 34.7374 18.8545 35.9942 18.8545L39.21 18.8545C40.4532 18.8545 41.0733 19.5615 41.0733 20.5821L41.0733 40.8301C41.0733 41.8682 40.4532 42.5753 39.21 42.5753Z" fill="#3f72af"/>
 </g>
</svg>
