<?xml version="1.0" encoding="UTF-8"?>
<!--Generator: Apple Native CoreSVG 232.5-->
<!DOCTYPE svg
PUBLIC "-//W3C//DTD SVG 1.1//EN"
       "http://www.w3.org/Graphics/SVG/1.1/DTD/svg11.dtd">
<svg version="1.1" xmlns="http://www.w3.org/2000/svg" xmlns:xlink="http://www.w3.org/1999/xlink" width="49.5344" height="49.2024">
 <g>
  <rect height="49.2024" opacity="0" width="49.5344" x="0" y="0"/>
  <path d="M24.5719 49.2024C38.0899 49.2024 49.1634 38.129 49.1634 24.611C49.1634 11.1125 38.0844 0.0390625 24.5664 0.0390625C11.068 0.0390625 0 11.1125 0 24.611C0 38.129 11.0735 49.2024 24.5719 49.2024Z" fill="#98989d" fill-opacity="0.25"/>
  <path d="M29.6094 36.6985C29.2094 36.6985 28.8422 36.4922 28.5148 36.193L21.9516 29.9508C21.7977 29.8251 21.6024 29.7383 21.3617 29.7383L16.7711 29.7383C15.4946 29.7383 14.5266 28.7649 14.5266 27.4805L14.5266 21.8954C14.5266 20.6164 15.4946 19.643 16.7711 19.643L21.3617 19.643C21.6024 19.643 21.7977 19.5844 21.9516 19.4305L28.5148 13.0422C28.85 12.7516 29.2039 12.5399 29.6039 12.5399C30.2188 12.5399 30.5375 12.9985 30.5375 13.5797L30.5375 35.661C30.5375 36.2477 30.2188 36.6985 29.6094 36.6985Z" fill="#98989d"/>
 </g>
</svg>
