<?xml version="1.0" encoding="UTF-8"?>
<!--Generator: Apple Native CoreSVG 232.5-->
<!DOCTYPE svg
PUBLIC "-//W3C//DTD SVG 1.1//EN"
       "http://www.w3.org/Graphics/SVG/1.1/DTD/svg11.dtd">
<svg version="1.1" xmlns="http://www.w3.org/2000/svg" xmlns:xlink="http://www.w3.org/1999/xlink" width="49.5344" height="49.2024">
 <g>
  <rect height="49.2024" opacity="0" width="49.5344" x="0" y="0"/>
  <path d="M24.5719 49.2024C38.0899 49.2024 49.1634 38.129 49.1634 24.611C49.1634 11.1125 38.0844 0.0390625 24.5664 0.0390625C11.068 0.0390625 0 11.1125 0 24.611C0 38.129 11.0735 49.2024 24.5719 49.2024Z" fill="#98989d" fill-opacity="0.25"/>
  <path d="M35.1719 33.7422C34.825 33.4977 34.7555 33.0594 34.9688 32.7828C36.7398 30.7227 37.6023 27.8086 37.6023 24.5633C37.6023 21.6243 36.7734 18.9258 35.0305 16.3524C34.8367 15.9915 34.8781 15.6204 35.1719 15.3508C35.5274 15.1289 35.9633 15.1672 36.1993 15.5563C38.0297 18.4071 39.0289 21.3969 39.0289 24.5633C39.0289 28.532 37.9375 31.5164 36.1516 33.5899C35.8453 33.9344 35.5047 33.9532 35.1719 33.7422Z" fill="#98989d"/>
  <path d="M30.0852 30.2094C29.7664 29.9289 29.7195 29.5883 29.8766 29.2922C30.8492 28.0266 31.4109 26.3594 31.4109 24.5633C31.4109 22.661 30.8774 20.9657 29.9383 19.8876C29.7195 19.5297 29.7859 19.15 30.0852 18.9032C30.3766 18.6617 30.843 18.7055 31.1125 19.05C32.2657 20.5094 32.8485 22.4985 32.8485 24.5633C32.8485 26.5688 32.2571 28.6196 31.1125 30.0625C30.8375 30.4071 30.3766 30.4649 30.0852 30.2094Z" fill="#98989d"/>
  <path d="M24.0828 36.0125C23.6797 36.0125 23.3656 35.7727 23.0633 35.5235L16.8266 29.6079C16.6727 29.468 16.5219 29.4149 16.2953 29.4149L11.9282 29.4149C10.7711 29.4149 9.81721 28.4751 9.81721 27.2625L9.81721 21.9704C9.81721 20.7945 10.7711 19.8602 11.9282 19.8602L16.2953 19.8602C16.5219 19.8602 16.6727 19.793 16.8266 19.6727L23.0633 13.6164C23.368 13.3367 23.6742 13.1055 24.086 13.1055C24.6672 13.1055 24.961 13.5532 24.961 14.1094L24.961 35.025C24.961 35.5618 24.6672 36.0125 24.0828 36.0125Z" fill="#98989d"/>
 </g>
</svg>
