<?xml version="1.0" encoding="UTF-8"?>
<!--Generator: Apple Native CoreSVG 232.5-->
<!DOCTYPE svg
PUBLIC "-//W3C//DTD SVG 1.1//EN"
       "http://www.w3.org/Graphics/SVG/1.1/DTD/svg11.dtd">
<svg version="1.1" xmlns="http://www.w3.org/2000/svg" xmlns:xlink="http://www.w3.org/1999/xlink" width="37.2387" height="36.9018">
 <g>
  <rect height="36.9018" opacity="0" width="37.2387" x="0" y="0"/>
  <path d="M18.4289 36.9018C28.5674 36.9018 36.8725 28.5967 36.8725 18.4582C36.8725 8.33439 28.5633 0.0292969 18.4248 0.0292969C8.30099 0.0292969 0 8.33439 0 18.4582C0 28.5967 8.30509 36.9018 18.4289 36.9018Z" fill="#3f72af" fill-opacity="0.25"/>
  <path d="M13.2112 23.1738C8.90804 18.8707 5.86234 12.8045 9.37855 9.29065C9.45179 9.21741 9.52504 9.12307 9.64222 9.04983C10.5733 8.47677 11.8881 7.50121 12.7928 8.78909L15.3194 12.3791C15.8807 13.1743 15.9639 14.0227 15.0135 15.095L14.195 15.9996C13.9922 16.2211 13.977 16.4696 14.1299 16.7526C14.4434 17.3801 15.3282 18.634 16.5364 19.8528C17.7551 21.0651 19.0219 21.9123 19.6536 22.2803C19.9383 22.452 20.2559 22.435 20.4756 22.2153L21.3153 21.3967C22.3289 20.4188 23.1897 20.4873 23.9953 21.0446C27.1289 23.1978 27.5695 23.4633 27.8356 23.7246C28.6055 24.5174 28.466 25.6125 27.2608 26.8424C27.2045 26.8963 27.1905 26.925 27.1196 27.0106C23.5741 30.5373 17.4827 27.4494 13.2112 23.1738Z" fill="#3f72af"/>
 </g>
</svg>
