<?xml version="1.0" encoding="UTF-8"?>
<!--Generator: Apple Native CoreSVG 232.5-->
<!DOCTYPE svg
PUBLIC "-//W3C//DTD SVG 1.1//EN"
       "http://www.w3.org/Graphics/SVG/1.1/DTD/svg11.dtd">
<svg version="1.1" xmlns="http://www.w3.org/2000/svg" xmlns:xlink="http://www.w3.org/1999/xlink" width="49.5344" height="49.2024">
 <g>
  <rect height="49.2024" opacity="0" width="49.5344" x="0" y="0"/>
  <path d="M24.5719 49.2024C38.0899 49.2024 49.1634 38.129 49.1634 24.611C49.1634 11.1125 38.0844 0.0390625 24.5664 0.0390625C11.068 0.0390625 0 11.1125 0 24.611C0 38.129 11.0735 49.2024 24.5719 49.2024Z" fill="#3f72af" fill-opacity="0.25"/>
  <path d="M17.1501 39.1368C16.8204 39.1368 16.5758 38.9125 16.5758 38.5188L16.5758 34.6477L15.3587 34.6477C12.3469 34.6477 10.3946 32.7321 10.3946 29.6867L10.3946 18.0883C10.3946 15.0454 12.3469 13.1578 15.3587 13.1578L33.7992 13.1578C36.8164 13.1578 38.7493 15.0735 38.7493 18.0883L38.7493 29.6867C38.7493 32.6985 36.8164 34.6477 33.7992 34.6477L22.7134 34.6477L17.8571 38.8328C17.6165 39.0399 17.4024 39.1368 17.1501 39.1368Z" fill="#3f72af"/>
 </g>
</svg>
