<?xml version="1.0" encoding="UTF-8"?>
<!--Generator: Apple Native CoreSVG 232.5-->
<!DOCTYPE svg
PUBLIC "-//W3C//DTD SVG 1.1//EN"
       "http://www.w3.org/Graphics/SVG/1.1/DTD/svg11.dtd">
<svg version="1.1" xmlns="http://www.w3.org/2000/svg" xmlns:xlink="http://www.w3.org/1999/xlink" width="61.796" height="61.503">
 <g>
  <rect height="61.503" opacity="0" width="61.796" x="0" y="0"/>
  <path d="M30.7149 61.503C47.6124 61.503 61.4542 47.6612 61.4542 30.7637C61.4542 13.8906 47.6055 0.0488281 30.7081 0.0488281C13.835 0.0488281 0 13.8906 0 30.7637C0 47.6612 13.8418 61.503 30.7149 61.503Z" fill="#32d74b"/>
  <path d="M22.0186 38.6231C14.8467 31.4512 9.77057 21.3409 15.6309 15.4844C15.753 15.3623 15.8751 15.2051 16.0704 15.0831C17.6221 14.128 19.8135 12.502 21.3214 14.6485L25.5323 20.6319C26.4678 21.9571 26.6065 23.3711 25.0225 25.1583L23.6583 26.6661C23.3204 27.0352 23.295 27.4493 23.5499 27.9209C24.0723 28.9668 25.547 31.0567 27.5606 33.0879C29.5919 35.1084 31.7032 36.5205 32.7559 37.1338C33.2305 37.42 33.7598 37.3916 34.126 37.0254L35.5254 35.6612C37.2149 34.0313 38.6495 34.1455 39.9922 35.0743C45.2148 38.6631 45.9492 39.1055 46.3926 39.541C47.6758 40.8623 47.4434 42.6875 45.4346 44.7373C45.3409 44.8272 45.3174 44.875 45.1993 45.0176C39.2901 50.8955 29.1378 45.7491 22.0186 38.6231Z" fill="#ffffff"/>
 </g>
</svg>
