<?xml version="1.0" encoding="UTF-8"?>
<!--Generator: Apple Native CoreSVG 232.5-->
<!DOCTYPE svg
PUBLIC "-//W3C//DTD SVG 1.1//EN"
       "http://www.w3.org/Graphics/SVG/1.1/DTD/svg11.dtd">
<svg version="1.1" xmlns="http://www.w3.org/2000/svg" xmlns:xlink="http://www.w3.org/1999/xlink" width="31.0811" height="30.7515">
 <g>
  <rect height="30.7515" opacity="0" width="31.0811" x="0" y="0"/>
  <path d="M15.3574 30.7271C23.8062 30.7271 30.7271 23.8062 30.7271 15.3697C30.7271 6.92091 23.8028 0 15.354 0C6.91749 0 0 6.92091 0 15.3697C0 23.8062 6.92091 30.7271 15.3574 30.7271Z" fill="#ff453a" fill-opacity="0.2"/>
  <path d="M9.90579 11.6519C10.2032 11.6519 10.3951 11.8472 10.3951 12.1582L10.3951 16.8291L10.3702 19.6665L11.9122 18.0605L20.3657 9.60695C20.4678 9.5049 20.5835 9.43556 20.7671 9.43556C21.0611 9.43556 21.2564 9.62746 21.2564 9.91947C21.2564 10.0772 21.1836 10.2051 21.0904 10.2984L12.607 18.7783L10.9942 20.3359L13.192 20.3076L18.5234 20.3076C18.8433 20.3076 19.0367 20.4995 19.0367 20.7935C19.0367 21.0645 18.8379 21.2388 18.5303 21.2388L9.92582 21.2388C9.63967 21.2388 9.4463 21.0552 9.4463 20.7417L9.4463 12.1651C9.4463 11.8487 9.6382 11.6519 9.90579 11.6519Z" fill="#ff453a"/>
 </g>
</svg>
