<?xml version="1.0" encoding="UTF-8"?>
<!--Generator: Apple Native CoreSVG 232.5-->
<!DOCTYPE svg
PUBLIC "-//W3C//DTD SVG 1.1//EN"
       "http://www.w3.org/Graphics/SVG/1.1/DTD/svg11.dtd">
<svg version="1.1" xmlns="http://www.w3.org/2000/svg" xmlns:xlink="http://www.w3.org/1999/xlink" width="31.0811" height="36.6559">
 <g>
  <rect height="36.6559" opacity="0" width="31.0811" x="0" y="0"/>
  <path d="M0 18.3516C0 26.8003 6.92091 33.7178 15.3574 33.7178C23.8062 33.7178 30.7271 26.8003 30.7271 18.3516C30.7271 10.8247 25.2139 4.51175 18.0391 3.22219L18.0391 0.597206C18.0391 0.0215053 17.628-0.185528 17.1138 0.188014L12.4126 3.47025C11.9766 3.7725 11.9731 4.18023 12.4126 4.48053L17.1104 7.77155C17.628 8.13972 18.0391 7.92927 18.0391 7.36236L18.0391 4.2408C24.6943 5.50106 29.7241 11.3463 29.7241 18.3516C29.7241 26.2823 23.2827 32.7217 15.3574 32.7217C7.43558 32.7217 0.992727 26.2823 0.996146 18.3516C0.999564 13.0787 3.85306 8.46738 8.11524 5.96787C8.36574 5.81112 8.43996 5.51911 8.3003 5.26519C8.17627 5.04448 7.8745 4.94731 7.60154 5.13531C3.04882 7.81061 0 12.7398 0 18.3516Z" fill="#98989d"/>
  <path d="M15.6514 24.733C17.9927 24.733 19.4922 22.9351 19.4922 20.6026C19.4922 18.4048 18.0977 16.6192 15.9243 16.6192C14.8184 16.6192 13.771 17.1338 13.2017 18.0606L13.1968 18.0606L13.6582 13.3507L18.3867 13.3507C18.6572 13.3507 18.8604 13.1651 18.8604 12.8946C18.8604 12.6119 18.6607 12.4297 18.3867 12.4297L13.5108 12.4297C13.021 12.4297 12.7935 12.6622 12.7446 13.1431L12.2344 18.5699C12.2031 18.9639 12.4097 19.2169 12.7354 19.2169C13.0586 19.2169 13.231 18.9742 13.4097 18.7642C13.9478 17.9708 14.7832 17.5025 15.7407 17.5025C17.4141 17.5025 18.4629 18.9273 18.4629 20.625C18.4629 22.3047 17.46 23.8155 15.6655 23.8155C14.294 23.8155 13.3101 22.9121 13.0049 21.7276C12.9185 21.4268 12.7432 21.2632 12.5176 21.2632C12.228 21.2632 12.0459 21.4576 12.0459 21.7437C12.0459 21.8794 12.0825 22.066 12.1226 22.2105C12.5693 23.7593 14.0098 24.733 15.6514 24.733Z" fill="#98989d"/>
 </g>
</svg>
