<?xml version="1.0" encoding="UTF-8"?>
<!--Generator: Apple Native CoreSVG 232.5-->
<!DOCTYPE svg
PUBLIC "-//W3C//DTD SVG 1.1//EN"
       "http://www.w3.org/Graphics/SVG/1.1/DTD/svg11.dtd">
<svg version="1.1" xmlns="http://www.w3.org/2000/svg" xmlns:xlink="http://www.w3.org/1999/xlink" width="31.0811" height="36.6173">
 <g>
  <rect height="36.6173" opacity="0" width="31.0811" x="0" y="0"/>
  <path d="M0 18.3324C0 26.7811 6.92091 33.6986 15.3574 33.6986C23.8062 33.6986 30.7271 26.7811 30.7271 18.3324C30.7271 12.7205 27.6661 7.79135 23.1256 5.11605C22.8526 4.92805 22.5508 5.02523 22.4146 5.24594C22.2871 5.49986 22.3614 5.79187 22.6031 5.94861C26.8618 8.44812 29.7241 13.0594 29.7275 18.3324C29.7222 26.263 23.2827 32.7024 15.3574 32.7024C7.43558 32.7024 0.999564 26.263 0.999564 18.3324C0.999564 11.3148 6.05374 5.46081 12.7056 4.22155L12.7056 7.3641C12.7056 7.93101 13.1079 8.13805 13.6343 7.7645L18.3321 4.48227C18.7681 4.18002 18.7627 3.78108 18.3321 3.47541L13.6289 0.184386C13.1079-0.183786 12.7056 0.0232482 12.7056 0.593578L12.7056 3.20294C5.5044 4.4715 0 10.7967 0 18.3324Z" fill="#112d4e" fill-opacity="0.5"/>
  <path d="M15.3115 24.7137C17.6651 24.7137 19.1612 22.9159 19.1612 20.5833C19.1612 18.3856 17.7666 16.5999 15.5967 16.5999C14.4908 16.5999 13.4346 17.1146 12.8653 18.0413L12.8692 18.0413L13.3272 13.3314L18.0591 13.3314C18.3296 13.3314 18.5293 13.1459 18.5293 12.8753C18.5293 12.5926 18.3296 12.4105 18.0591 12.4105L13.1831 12.4105C12.6934 12.4105 12.4624 12.6429 12.417 13.1239L11.9068 18.5506C11.8667 18.9447 12.0733 19.1976 12.399 19.1976C12.731 19.1976 12.9034 18.9549 13.0787 18.745C13.6167 17.9515 14.4556 17.4833 15.4097 17.4833C17.0776 17.4833 18.1352 18.9081 18.1352 20.6058C18.1352 22.2855 17.1323 23.7962 15.3379 23.7962C13.9663 23.7962 12.9737 22.8929 12.6685 21.7083C12.5821 21.4075 12.4156 21.244 12.1778 21.244C11.8916 21.244 11.7183 21.4383 11.7183 21.7245C11.7183 21.8602 11.7515 22.0467 11.7915 22.1913C12.2329 23.7401 13.6734 24.7137 15.3115 24.7137Z" fill="#112d4e"/>
 </g>
</svg>
