<?xml version="1.0" encoding="UTF-8"?>
<!--Generator: Apple Native CoreSVG 232.5-->
<!DOCTYPE svg
PUBLIC "-//W3C//DTD SVG 1.1//EN"
       "http://www.w3.org/Graphics/SVG/1.1/DTD/svg11.dtd">
<svg version="1.1" xmlns="http://www.w3.org/2000/svg" xmlns:xlink="http://www.w3.org/1999/xlink" width="29.8594" height="36.4117">
 <g>
  <rect height="36.4117" opacity="0" width="29.8594" x="0" y="0"/>
  <path d="M9.98439 29.6294C9.70557 29.6294 9.53955 29.4404 9.53271 29.2036L8.94434 10.7715C8.94092 10.4961 9.12452 10.3281 9.3926 10.3281C9.626 10.3281 9.83402 10.4927 9.83744 10.7329L10.4326 29.1826C10.4361 29.4282 10.2666 29.6294 9.98439 29.6294ZM14.7676 29.6294C14.5151 29.6294 14.3213 29.4458 14.3213 29.1826L14.3213 10.7715C14.3213 10.5171 14.5151 10.3281 14.7676 10.3281C15.0288 10.3281 15.2227 10.5171 15.2227 10.7715L15.2227 29.1826C15.2227 29.4458 15.0288 29.6294 14.7676 29.6294ZM19.5386 29.647C19.2564 29.647 19.0903 29.4458 19.0937 29.2036L19.6855 10.7539C19.689 10.5137 19.897 10.3457 20.1338 10.3457C20.3985 10.3457 20.5821 10.5171 20.5786 10.7925L19.9903 29.2212C19.9834 29.4614 19.8174 29.647 19.5386 29.647ZM8.32861 6.26175L9.30474 6.26175L9.30474 2.96634C9.30474 1.70853 10.1255 0.959516 11.5005 0.959516L17.998 0.959516C19.3994 0.959516 20.2202 1.70853 20.2202 2.96634L20.2202 6.26175L21.1963 6.26175L21.1963 2.94973C21.1963 1.10206 20.0034 0 17.9795 0L11.5191 0C9.52491 0 8.32861 1.10206 8.32861 2.94973ZM0.503439 6.74371L29.0283 6.74371C29.3086 6.74371 29.5054 6.52592 29.5054 6.26663C29.5054 5.97756 29.291 5.77735 29.0283 5.77735L0.503439 5.77735C0.238779 5.77735 0 5.99855 0 6.26663C0 6.54692 0.238779 6.74371 0.503439 6.74371ZM7.75147 34.1602L21.7783 34.1602C23.4297 34.1602 24.8101 32.855 24.8936 31.2388L26.2027 6.42632L3.3413 6.42632L4.65038 31.2334C4.73387 32.8584 6.08983 34.1602 7.75147 34.1602Z" fill="#ffffff"/>
 </g>
</svg>
